<?xml version="1.0" encoding="UTF-8" standalone="no"?>
<!-- Generator: Adobe Illustrator 16.0.0, SVG Export Plug-In . SVG Version: 6.00 Build 0)  -->

<svg
   xmlns:dc="http://purl.org/dc/elements/1.1/"
   xmlns:cc="http://creativecommons.org/ns#"
   xmlns:rdf="http://www.w3.org/1999/02/22-rdf-syntax-ns#"
   xmlns:svg="http://www.w3.org/2000/svg"
   xmlns="http://www.w3.org/2000/svg"
   xmlns:sodipodi="http://sodipodi.sourceforge.net/DTD/sodipodi-0.dtd"
   xmlns:inkscape="http://www.inkscape.org/namespaces/inkscape"
   version="1.1"
   id="Capa_1"
   x="0px"
   y="0px"
   width="1600"
   height="1600"
   viewBox="0 0 1500 1500"
   xml:space="preserve"
   inkscape:version="0.92.1 r15371"
   sodipodi:docname="logout_dark.svg"><metadata
     id="metadata45"><rdf:RDF><cc:Work
         rdf:about=""><dc:format>image/svg+xml</dc:format><dc:type
           rdf:resource="http://purl.org/dc/dcmitype/StillImage" /><dc:title /></cc:Work></rdf:RDF></metadata><defs
     id="defs43" /><sodipodi:namedview
     pagecolor="#ffffff"
     bordercolor="#666666"
     borderopacity="1"
     objecttolerance="10"
     gridtolerance="10"
     guidetolerance="10"
     inkscape:pageopacity="0"
     inkscape:pageshadow="2"
     inkscape:window-width="1920"
     inkscape:window-height="1000"
     id="namedview41"
     showgrid="false"
     inkscape:zoom="0.26339286"
     inkscape:cx="609.35589"
     inkscape:cy="470.77966"
     inkscape:window-x="0"
     inkscape:window-y="43"
     inkscape:window-maximized="1"
     inkscape:current-layer="Capa_1" /><g
     id="g3"
     style="fill:#000000"
     transform="translate(307.52542,288.88136)"><g
       id="g5"
       style="fill:#000000"><path
         d="M 884.927,356.016 738.364,209.453 c -14.656,-14.656 -65.078,-14.656 -65.078,15.861 v 335.562 c 0,30.627 50.422,30.627 65.078,15.859 L 884.927,430.28 c 14.763,-14.764 14.763,-59.608 0,-74.264 z"
         id="path7"
         style="fill:#000000"
         inkscape:connector-curvature="0" /><path
         d="M 448,0 H 112 0 V 112 164.499 598.5 672 L 336,896 V 784 h 112 c 61.795,0 112.002,-50.203 112.002,-112 V 112 C 560.003,50.094 509.794,0 448,0 Z m -0.042,672.002 h -112 v -448 L 167.958,112 h 280 z"
         id="path9"
         style="fill:#000000"
         inkscape:connector-curvature="0" /></g></g><g
     id="g11"
     style="fill:#000000"
     transform="translate(0,604)" /><g
     id="g13"
     style="fill:#000000"
     transform="translate(0,604)" /><g
     id="g15"
     style="fill:#000000"
     transform="translate(0,604)" /><g
     id="g17"
     style="fill:#000000"
     transform="translate(0,604)" /><g
     id="g19"
     style="fill:#000000"
     transform="translate(0,604)" /><g
     id="g21"
     style="fill:#000000"
     transform="translate(0,604)" /><g
     id="g23"
     style="fill:#000000"
     transform="translate(0,604)" /><g
     id="g25"
     style="fill:#000000"
     transform="translate(0,604)" /><g
     id="g27"
     style="fill:#000000"
     transform="translate(0,604)" /><g
     id="g29"
     style="fill:#000000"
     transform="translate(0,604)" /><g
     id="g31"
     style="fill:#000000"
     transform="translate(0,604)" /><g
     id="g33"
     style="fill:#000000"
     transform="translate(0,604)" /><g
     id="g35"
     style="fill:#000000"
     transform="translate(0,604)" /><g
     id="g37"
     style="fill:#000000"
     transform="translate(0,604)" /><g
     id="g39"
     style="fill:#000000"
     transform="translate(0,604)" /></svg>