<?xml version="1.0" encoding="UTF-8" standalone="no"?>
<!-- Generator: Adobe Illustrator 16.0.0, SVG Export Plug-In . SVG Version: 6.00 Build 0)  -->

<svg
   xmlns:dc="http://purl.org/dc/elements/1.1/"
   xmlns:cc="http://creativecommons.org/ns#"
   xmlns:rdf="http://www.w3.org/1999/02/22-rdf-syntax-ns#"
   xmlns:svg="http://www.w3.org/2000/svg"
   xmlns="http://www.w3.org/2000/svg"
   xmlns:sodipodi="http://sodipodi.sourceforge.net/DTD/sodipodi-0.dtd"
   xmlns:inkscape="http://www.inkscape.org/namespaces/inkscape"
   version="1.1"
   id="Capa_1"
   x="0px"
   y="0px"
   width="928"
   height="928"
   viewBox="0 0 870 870"
   xml:space="preserve"
   inkscape:version="0.92.1 r"
   sodipodi:docname="home2.svg"><metadata
     id="metadata41"><rdf:RDF><cc:Work
         rdf:about=""><dc:format>image/svg+xml</dc:format><dc:type
           rdf:resource="http://purl.org/dc/dcmitype/StillImage" /><dc:title /></cc:Work></rdf:RDF></metadata><defs
     id="defs39" /><sodipodi:namedview
     pagecolor="#ffffff"
     bordercolor="#666666"
     borderopacity="1"
     objecttolerance="10"
     gridtolerance="10"
     guidetolerance="10"
     inkscape:pageopacity="0"
     inkscape:pageshadow="2"
     inkscape:window-width="1920"
     inkscape:window-height="1010"
     id="namedview37"
     showgrid="false"
     inkscape:zoom="0.4609375"
     inkscape:cx="-176.81356"
     inkscape:cy="325.42373"
     inkscape:window-x="0"
     inkscape:window-y="33"
     inkscape:window-maximized="1"
     inkscape:current-layer="Capa_1" /><g
     id="g3"
     transform="matrix(1.27753,0,0,1.27753,119.32521,98.214432)"
     style="fill:#000000;stroke:#f9f9f9"><path
       d="M 512,303.478 256,104.763 0,303.478 v -81.02 L 256,23.746 512,222.46 Z m -64,-7.224 v 192 H 320 v -128 H 192 v 128 H 64 v -192 l 192,-144 z"
       id="path5"
       inkscape:connector-curvature="0"
       style="fill:#000000;stroke:#f9f9f9" /></g><g
     id="g7"
     transform="matrix(1.27753,0,0,1.27753,-113.48839,350.42915)"
     style="fill:#000000" /><g
     id="g9"
     transform="matrix(1.27753,0,0,1.27753,-113.48839,350.42915)"
     style="fill:#000000" /><g
     id="g11"
     transform="matrix(1.27753,0,0,1.27753,-113.48839,350.42915)"
     style="fill:#000000" /><g
     id="g13"
     transform="matrix(1.27753,0,0,1.27753,-113.48839,350.42915)"
     style="fill:#000000" /><g
     id="g15"
     transform="matrix(1.27753,0,0,1.27753,-113.48839,350.42915)"
     style="fill:#000000" /><g
     id="g17"
     transform="matrix(1.27753,0,0,1.27753,-113.48839,350.42915)"
     style="fill:#000000" /><g
     id="g19"
     transform="matrix(1.27753,0,0,1.27753,-113.48839,350.42915)"
     style="fill:#000000" /><g
     id="g21"
     transform="matrix(1.27753,0,0,1.27753,-113.48839,350.42915)"
     style="fill:#000000" /><g
     id="g23"
     transform="matrix(1.27753,0,0,1.27753,-113.48839,350.42915)"
     style="fill:#000000" /><g
     id="g25"
     transform="matrix(1.27753,0,0,1.27753,-113.48839,350.42915)"
     style="fill:#000000" /><g
     id="g27"
     transform="matrix(1.27753,0,0,1.27753,-113.48839,350.42915)"
     style="fill:#000000" /><g
     id="g29"
     transform="matrix(1.27753,0,0,1.27753,-113.48839,350.42915)"
     style="fill:#000000" /><g
     id="g31"
     transform="matrix(1.27753,0,0,1.27753,-113.48839,350.42915)"
     style="fill:#000000" /><g
     id="g33"
     transform="matrix(1.27753,0,0,1.27753,-113.48839,350.42915)"
     style="fill:#000000" /><g
     id="g35"
     transform="matrix(1.27753,0,0,1.27753,-113.48839,350.42915)"
     style="fill:#000000" /></svg>